<svg width="201" height="77" viewBox="0 0 201 77" fill="none" xmlns="http://www.w3.org/2000/svg">
<path d="M6.875 60V18.125H23.5625C25.3542 18.125 27.1042 18.4792 28.8125 19.1875C30.5625 19.8542 32.125 20.8333 33.5 22.125C34.9167 23.375 36.0417 24.8958 36.875 26.6875C37.7083 28.4375 38.125 30.3958 38.125 32.5625C38.125 35.4375 37.4375 37.9583 36.0625 40.125C34.6875 42.25 32.8125 43.9167 30.4375 45.125C28.1042 46.3333 25.5 46.9375 22.625 46.9375C20.2083 46.9375 18.0417 46.6667 16.125 46.125C14.25 45.5833 12.7917 45.0417 11.75 44.5V39.375C12.75 39.9167 14.25 40.4583 16.25 41C18.25 41.5 20.3125 41.75 22.4375 41.75C25.6042 41.75 28.0417 40.9583 29.75 39.375C31.5 37.7917 32.375 35.5208 32.375 32.5625C32.375 30.7708 31.875 29.2083 30.875 27.875C29.9167 26.5 28.6458 25.4167 27.0625 24.625C25.4792 23.8333 23.7917 23.4375 22 23.4375H12.5V60H6.875ZM48.125 60V18.125H64.1875C65.9792 18.125 67.7292 18.375 69.4375 18.875C71.1875 19.375 72.75 20.1458 74.125 21.1875C75.5417 22.1875 76.6667 23.4792 77.5 25.0625C78.3333 26.6458 78.75 28.5208 78.75 30.6875C78.75 33.2708 78 35.4583 76.5 37.25C75.0417 39.0417 73.1667 40.3958 70.875 41.3125C68.625 42.1875 66.2917 42.625 63.875 42.625C63.2083 42.625 62.375 42.5833 61.375 42.5C60.4167 42.4167 59.4167 42.3333 58.375 42.25C57.3333 42.125 56.3542 42 55.4375 41.875C54.5208 41.7083 53.8125 41.5625 53.3125 41.4375V36.75C54.7292 37.1667 56.2917 37.5 58 37.75C59.7083 37.9583 61.3958 38.0625 63.0625 38.0625C66.2292 38.0625 68.6667 37.3958 70.375 36.0625C72.125 34.7292 73 32.9375 73 30.6875C73 28.3542 72.0417 26.5625 70.125 25.3125C68.25 24.0625 65.9583 23.4375 63.25 23.4375H53.75V60H48.125ZM71.75 60L52.6875 41.4375L57.1875 39.125L80.375 60H71.75ZM95.5625 60V18.125H101.188V60H95.5625ZM88.5 60V54.6875H108.25V60H88.5ZM88.5 23.4375V18.125H108.25V23.4375H88.5ZM130.312 60.625C127.896 60.625 125.667 60.2083 123.625 59.375C121.583 58.5417 119.812 57.6042 118.312 56.5625V50.75C119.938 51.875 121.792 52.8958 123.875 53.8125C126 54.6875 128.396 55.125 131.062 55.125C133.146 55.125 134.979 54.6042 136.562 53.5625C138.146 52.5208 138.938 51.0833 138.938 49.25C138.938 48.2083 138.604 47.3125 137.938 46.5625C137.312 45.8125 136.542 45.1667 135.625 44.625C134.708 44.0833 133.812 43.625 132.938 43.25L126 40.125C124 39.2083 122.438 38.2083 121.312 37.125C120.188 36.0417 119.396 34.8542 118.938 33.5625C118.479 32.2292 118.25 30.7917 118.25 29.25C118.25 27.0417 118.875 25.0625 120.125 23.3125C121.417 21.5208 123.125 20.1042 125.25 19.0625C127.375 18.0208 129.667 17.5 132.125 17.5C134.583 17.5 136.604 17.8542 138.188 18.5625C139.812 19.2708 141.229 20.0208 142.438 20.8125V26.625C141.271 25.75 139.854 24.9375 138.188 24.1875C136.521 23.3958 134.708 23 132.75 23C131.5 23 130.188 23.2292 128.812 23.6875C127.479 24.1042 126.354 24.7917 125.438 25.75C124.521 26.7083 124.062 27.9375 124.062 29.4375C124.062 31.1042 124.667 32.375 125.875 33.25C127.083 34.125 128.542 34.9583 130.25 35.75L136 38.375C138.875 39.6667 141.042 41.1042 142.5 42.6875C143.958 44.2708 144.688 46.375 144.688 49C144.688 51.2917 144.021 53.3125 142.688 55.0625C141.354 56.7708 139.604 58.125 137.438 59.125C135.271 60.125 132.896 60.625 130.312 60.625ZM154.688 60V18.125H156.438L174.312 37.3125L191.875 18.125H193.625V60H188V29.6875L175.062 43.5H173.562L160.312 29.6875V60H154.688Z" fill="url(#paint0_linear_2_14)"/>
<defs>
<linearGradient id="paint0_linear_2_14" x1="100.5" y1="0" x2="100.5" y2="77" gradientUnits="userSpaceOnUse">
<stop stop-color="white"/>
<stop offset="1" stop-color="#999999"/>
</linearGradient>
</defs>
</svg>
